<svg xmlns="http://www.w3.org/2000/svg" viewBox="0 0 256 256" role="img" aria-label="Picsou IA performance icon">
  <defs>
    <linearGradient id="bg" x1="0" y1="0" x2="1" y2="1">
      <stop offset="0%" stop-color="#173542"/>
      <stop offset="100%" stop-color="#214d45"/>
    </linearGradient>
    <linearGradient id="rise" x1="0" y1="1" x2="1" y2="0">
      <stop offset="0%" stop-color="#d6ac54"/>
      <stop offset="100%" stop-color="#f1d388"/>
    </linearGradient>
  </defs>
  <rect width="256" height="256" rx="54" fill="url(#bg)"/>
  <rect x="30" y="30" width="196" height="196" rx="38" fill="rgba(255,255,255,0.06)" stroke="rgba(255,255,255,0.12)"/>
  <path d="M63 176h130" stroke="rgba(255,255,255,0.20)" stroke-width="10" stroke-linecap="round"/>
  <path d="M78 162 110 131 136 144 182 96" fill="none" stroke="url(#rise)" stroke-width="14" stroke-linecap="round" stroke-linejoin="round"/>
  <path d="M167 96h27v27" fill="none" stroke="url(#rise)" stroke-width="12" stroke-linecap="round" stroke-linejoin="round"/>
  <circle cx="92" cy="110" r="24" fill="#f3f7f8"/>
  <path d="M82 119c4 4 17 4 21-1 5-5 1-11-6-13l-7-2c-6-2-9-7-6-12 3-4 11-6 18-2" fill="none" stroke="#214d45" stroke-width="7" stroke-linecap="round" stroke-linejoin="round"/>
  <path d="M92 92v35" stroke="#214d45" stroke-width="7" stroke-linecap="round"/>
</svg>