<svg xmlns="http://www.w3.org/2000/svg" viewBox="0 0 256 256" role="img" aria-label="Picsou IA icon">
  <defs>
    <linearGradient id="bg" x1="0" y1="0" x2="1" y2="1">
      <stop offset="0%" stop-color="#07131d" />
      <stop offset="55%" stop-color="#102736" />
      <stop offset="100%" stop-color="#174962" />
    </linearGradient>
    <radialGradient id="gold" cx="35%" cy="30%" r="75%">
      <stop offset="0%" stop-color="#fff3b3" />
      <stop offset="50%" stop-color="#f6c75a" />
      <stop offset="100%" stop-color="#b87714" />
    </radialGradient>
    <linearGradient id="glass" x1="0" y1="0" x2="1" y2="1">
      <stop offset="0%" stop-color="rgba(255,255,255,0.28)" />
      <stop offset="100%" stop-color="rgba(255,255,255,0.06)" />
    </linearGradient>
    <linearGradient id="mint" x1="0" y1="0" x2="1" y2="1">
      <stop offset="0%" stop-color="#74d2ae" />
      <stop offset="100%" stop-color="#3ea981" />
    </linearGradient>
  </defs>
  <rect width="256" height="256" rx="56" fill="url(#bg)" />
  <rect x="24" y="24" width="208" height="208" rx="44" fill="url(#glass)" stroke="rgba(255,255,255,0.10)" />
  <circle cx="128" cy="128" r="68" fill="url(#gold)" />
  <circle cx="128" cy="128" r="54" fill="none" stroke="#8f6115" stroke-width="6" opacity="0.55" />
  <path d="M128 83v90" stroke="#7e5411" stroke-width="12" stroke-linecap="round" />
  <path d="M92 104c7-12 20-18 36-18 20 0 33 7 41 20 5 8 6 17 3 27-4 12-13 19-28 24l-29 8c-11 3-17 8-20 14" stroke="#7e5411" stroke-width="12" stroke-linecap="round" fill="none" />
  <path d="M91 160c7 14 21 21 40 21 22 0 37-8 46-24" stroke="#7e5411" stroke-width="12" stroke-linecap="round" fill="none" />
  <path d="M56 196c16-12 34-17 54-14 18 2 34 10 48 24" stroke="url(#mint)" stroke-width="12" stroke-linecap="round" fill="none" opacity="0.95" />
  <path d="M150 69h36" stroke="#f8e39a" stroke-width="10" stroke-linecap="round" opacity="0.85" />
  <path d="M168 51v36" stroke="#f8e39a" stroke-width="10" stroke-linecap="round" opacity="0.85" />
</svg>