<svg xmlns="http://www.w3.org/2000/svg" viewBox="0 0 256 256" role="img" aria-label="Picsou IA duck icon">
  <rect width="256" height="256" rx="52" fill="#e0f2fe"/>
  <!-- Water -->
  <ellipse cx="128" cy="226" rx="102" ry="24" fill="#7dd3fc" opacity="0.75"/>
  <!-- Body -->
  <ellipse cx="118" cy="158" rx="82" ry="68" fill="#FDE047"/>
  <!-- Wing highlight -->
  <ellipse cx="108" cy="174" rx="48" ry="32" fill="#EAB308" opacity="0.65"/>
  <!-- Tail feather -->
  <path d="M44 150 Q10 116 48 98 Q33 132 44 150Z" fill="#EAB308"/>
  <!-- Head -->
  <circle cx="178" cy="104" r="56" fill="#FDE047"/>
  <!-- Eye -->
  <circle cx="198" cy="90" r="13" fill="#111"/>
  <circle cx="201" cy="87" r="5" fill="white"/>
  <!-- Beak upper -->
  <path d="M226 103 L256 92 L256 108 Z" fill="#F97316"/>
  <!-- Beak lower -->
  <path d="M226 108 L256 108 L256 120 Z" fill="#EA580C"/>
  <!-- Feet -->
  <path d="M96 222 Q80 242 70 238 Q82 234 92 238 Q96 220 106 224Z" fill="#F97316"/>
  <path d="M134 222 Q118 242 108 238 Q120 234 130 238 Q134 220 144 224Z" fill="#F97316"/>
  <!-- Top hat -->
  <rect x="146" y="36" width="76" height="50" rx="6" fill="#1e293b"/>
  <rect x="134" y="80" width="100" height="18" rx="9" fill="#1e293b"/>
  <!-- Hat band in yellow -->
  <rect x="146" y="56" width="76" height="16" fill="#FDE047"/>
  <!-- Tiny star on hat -->
  <text x="184" y="50" text-anchor="middle" font-size="18" fill="#FDE047">★</text>
</svg>